# xmcd CD database file generated by Grip 3.1.4
# 
# Track frame offsets:
#       150
#       44497
#       55386
#       92636
#       126438
#       172002
#       204664
#       220896
# 
# Disc length: 3533 seconds
# 
# Revision: 8
# Processed by: cddbd v1.5.1PL0 Copyright (c) Steve Scherf et al.
# Submitted via: Grip 3.1.4
# 
DISCID=7b0dcb08
DTITLE=Deva Premal - The Essence
DYEAR=2001
DGENRE=New Age
TTITLE0=Gayatri Mantra
TTITLE1=Om Asatoma
TTITLE2=Tumare Darshan
TTITLE3=Om Namo
TTITLE4=Shima Shima
TTITLE5=Sammasati
TTITLE6=Yemaya Assessu
TTITLE7=Gayatri Mantra
EXTD=\n YEAR: 2001
EXTT0=
EXTT1=
EXTT2=
EXTT3=
EXTT4=
EXTT5=
EXTT6=
EXTT7=
PLAYORDER=
